<svg width="32" height="43" viewBox="0 0 32 43" fill="none" xmlns="http://www.w3.org/2000/svg">
<path fill-rule="evenodd" clip-rule="evenodd" d="M17.5843 10.6102L21.1211 14.147L17.5843 17.6838V10.6102ZM17.5843 32.3898L21.1211 28.853L17.5843 25.3162V32.3898ZM13.7949 21.5242L6.11406 13.7949L8.33663 11.5724L14.4507 17.6838V3.0315L25.5689 14.147L18.2401 21.5269L25.6173 28.9041L14.5018 40.0223V25.3162L8.33663 31.4276L6.11406 29.2051L13.7949 21.5269V21.5242ZM15.8643 43C25.2652 43 31.7313 38.5522 31.7313 21.4731C31.7313 4.44781 25.2652 0 15.867 0C6.46881 0 0 4.44781 0 21.5269C0 38.5495 6.46881 43 15.867 43H15.8643Z" fill="#134EBB"/>
</svg>
